<svg width="28" height="26" viewBox="0 0 28 26" fill="none" xmlns="http://www.w3.org/2000/svg">
<path d="M24.1494 3.94496C23.5629 3.32835 22.8667 2.83921 22.1003 2.50549C21.334 2.17177 20.5126 2 19.6831 2C18.8535 2 18.0321 2.17177 17.2658 2.50549C16.4994 2.83921 15.8032 3.32835 15.2167 3.94496L13.9997 5.22404L12.7826 3.94496C11.5981 2.70004 9.99152 2.00065 8.31633 2.00065C6.64113 2.00065 5.03455 2.70004 3.85001 3.94496C2.66547 5.18988 2 6.87836 2 8.63895C2 10.3995 2.66547 12.088 3.85001 13.3329L5.06705 14.612L13.9997 24L22.9323 14.612L24.1494 13.3329C24.7361 12.7166 25.2015 11.9849 25.519 11.1794C25.8366 10.374 26 9.51076 26 8.63895C26 7.76714 25.8366 6.90387 25.519 6.09846C25.2015 5.29305 24.7361 4.56128 24.1494 3.94496Z" stroke="black" stroke-width="3" stroke-linecap="round" stroke-linejoin="round"/>
</svg>
